<svg xmlns="http://www.w3.org/2000/svg" version="1.1" xmlns:xlink="http://www.w3.org/1999/xlink" xmlns:svgjs="http://svgjs.dev/svgjs" width="1440" height="560" preserveAspectRatio="none" viewBox="0 0 1440 560"><g mask="url(&quot;#SvgjsMask2426&quot;)" fill="none"><rect width="1440" height="560" x="0" y="0" fill="url(&quot;#SvgjsLinearGradient2427&quot;)"></rect><path d="M416.99 653.44C557.03 649.55 650.32 455.63 936.73 443.97 1223.13 432.31 1309.76 177.82 1456.46 169.57" stroke="rgba(51, 121, 194, 0.6)" stroke-width="2"></path><path d="M522.34 651.47C687.18 638.03 801.55 305.73 1086.11 305.36 1370.68 304.99 1501.15 493.21 1649.89 495.76" stroke="rgba(51, 121, 194, 0.6)" stroke-width="2"></path><path d="M517.77 626.32C662.1 613.5 760.22 315.41 1006.74 315.15 1253.25 314.89 1365.06 496.9 1495.7 499.95" stroke="rgba(51, 121, 194, 0.6)" stroke-width="2"></path><path d="M273.41 580.16C401.14 573.18 496.41 344.09 727.01 343.4 957.6 342.71 953.81 413.4 1180.6 413.4 1407.4 413.4 1519.46 343.61 1634.2 343.4" stroke="rgba(51, 121, 194, 0.6)" stroke-width="2"></path><path d="M181.06 604.95C293.52 603.41 395.19 471.03 610.52 470.99 825.84 470.95 825.24 540.99 1039.97 540.99 1254.7 540.99 1360.65 471.22 1469.43 470.99" stroke="rgba(51, 121, 194, 0.6)" stroke-width="2"></path></g><defs><mask id="SvgjsMask2426"><rect width="1440" height="560" fill="#ffffff"></rect></mask><linearGradient x1="50%" y1="100%" x2="50%" y2="0%" gradientUnits="userSpaceOnUse" id="SvgjsLinearGradient2427"><stop stop-color="rgba(6, 50, 96, 1)" offset="0.32"></stop><stop stop-color="rgba(125, 154, 190, 1)" offset="1"></stop></linearGradient></defs></svg>