<svg xmlns="http://www.w3.org/2000/svg" version="1.1" xmlns:xlink="http://www.w3.org/1999/xlink" xmlns:svgjs="http://svgjs.dev/svgjs" width="1440" height="560" preserveAspectRatio="none" viewBox="0 0 1440 560"><g mask="url(&quot;#SvgjsMask2442&quot;)" fill="none"><rect width="1440" height="560" x="0" y="0" fill="url(&quot;#SvgjsLinearGradient2443&quot;)"></rect><path d="M1193.02-0.47C1066.01 11.15 984.7 274.4 764.15 275.84 543.61 277.28 549.72 205.84 335.29 205.84 120.85 205.84 15.06 275.61-93.58 275.84" stroke="rgba(51, 121, 194, 0.6)" stroke-width="2"></path><path d="M540.37-32.31C397.52 16.12 363.48 430.43 159.31 435.48-44.86 440.53-117.14 265.91-221.75 261.88" stroke="rgba(51, 121, 194, 0.6)" stroke-width="2"></path><path d="M931.2-40.66C780.25-38.99 656.27 122.03 351.06 126.84 45.84 131.65-74.64 336.32-229.09 339.64" stroke="rgba(51, 121, 194, 0.6)" stroke-width="2"></path><path d="M833.21-41.09C709.75 6.64 756.92 381.36 514.79 381.91 272.65 382.46 50.14 123.83-122.06 118.71" stroke="rgba(51, 121, 194, 0.6)" stroke-width="2"></path><path d="M1355.07-37.7C1228.06-34.24 1120.99 150.86 883.2 151.09 645.4 151.32 647.26 81.09 411.32 81.09 175.39 81.09 58.71 150.9-60.55 151.09" stroke="rgba(51, 121, 194, 0.6)" stroke-width="2"></path></g><defs><mask id="SvgjsMask2442"><rect width="1440" height="560" fill="#ffffff"></rect></mask><linearGradient x1="50%" y1="0%" x2="50%" y2="100%" gradientUnits="userSpaceOnUse" id="SvgjsLinearGradient2443"><stop stop-color="rgba(6, 50, 96, 1)" offset="0.32"></stop><stop stop-color="rgba(125, 154, 190, 1)" offset="1"></stop></linearGradient></defs></svg>